<svg id="new" xmlns="http://www.w3.org/2000/svg" width="24" height="24" fill="currentColor" viewBox="0 0 24 24">
  <path d="M5 2a1 1 0 01.894.553L7.382 4H9a1 1 0 010 2H7.382l-.488 1.447A1 1 0 015 10a1 1 0 01-.894-.553L3.618 7H2a1 1 0 110-2h1.618l.488-1.447A1 1 0 015 2zM15 6a1 1 0 01.894.553L17.382 8H19a1 1 0 110 2h-1.618l-.488 1.447A1 1 0 0115 14a1 1 0 01-.894-.553L13.618 11H12a1 1 0 110-2h1.618l.488-1.447A1 1 0 0115 6zM10 12a1 1 0 01.894.553L11.382 14H13a1 1 0 110 2h-1.618l-.488 1.447A1 1 0 019 19a1 1 0 01-.894-.553L7.618 16H6a1 1 0 110-2h1.618l.488-1.447A1 1 0 0110 12z" />
</svg>
