<svg id="top" xmlns="http://www.w3.org/2000/svg" width="24" height="24" viewBox="0 0 20 20" fill="currentColor">
  <path fill-rule="evenodd" d="M9.049 2.927c.3-.921 1.603-.921 1.902 0l1.286 3.946a1 1 0 00.95.69h4.157c.969 0 1.371 1.24.588 1.81l-3.369 2.449a1 1 0 00-.364 1.118l1.286 3.946c.3.921-.755 1.688-1.54 1.118L10 15.347l-3.369 2.449c-.784.57-1.838-.197-1.539-1.118l1.286-3.946a1 1 0 00-.364-1.118L2.605 9.373c-.783-.57-.38-1.81.588-1.81h4.157a1 1 0 00.95-.69L9.05 2.927z" clip-rule="evenodd" />
</svg>
